<?xml version="1.0" encoding="utf-8"?>
<svg viewBox="17.4406 59.4652 232.7582 35.138" xmlns="http://www.w3.org/2000/svg">
  <path d="M 9.445 44.777 L 8.85 44.777 L 8.85 41.205 L 6.743 41.205 L 6.743 40.609 L 11.553 40.609 L 11.553 41.205 L 9.445 41.205 Z" transform="matrix(5.108961, 0, 0, 4.870968, -16.702606, -131.312576)" style="fill: rgb(255, 248, 248); line-height: 9.19735px;"/>
  <path d="M 16.948 42.693 Q 16.948 43.128 16.812 43.506 Q 16.675 43.884 16.422 44.17 Q 16.169 44.456 15.817 44.616 Q 15.466 44.777 15.037 44.777 L 13.65 44.777 Q 13.216 44.777 12.864 44.616 Q 12.513 44.456 12.26 44.17 Q 12.007 43.884 11.87 43.506 Q 11.733 43.128 11.733 42.693 Q 11.733 42.265 11.87 41.887 Q 12.007 41.508 12.26 41.22 Q 12.513 40.931 12.864 40.77 Q 13.216 40.609 13.65 40.609 L 15.037 40.609 Q 15.466 40.609 15.817 40.77 Q 16.169 40.931 16.422 41.22 Q 16.675 41.508 16.812 41.887 Q 16.948 42.265 16.948 42.693 Z M 16.353 42.693 Q 16.353 42.282 16.195 41.943 Q 16.038 41.604 15.743 41.404 Q 15.448 41.205 15.037 41.205 L 13.65 41.205 Q 13.239 41.205 12.945 41.404 Q 12.65 41.604 12.489 41.943 Q 12.328 42.282 12.328 42.693 Q 12.328 43.104 12.489 43.44 Q 12.65 43.777 12.945 43.979 Q 13.239 44.182 13.65 44.182 L 15.037 44.182 Q 15.448 44.182 15.743 43.979 Q 16.038 43.777 16.195 43.44 Q 16.353 43.104 16.353 42.693 Z" transform="matrix(5.108961, 0, 0, 4.870968, -16.702606, -131.312576)" style="fill: rgb(255, 248, 248); line-height: 9.19735px;"/>
  <path d="M 19.833 44.777 L 19.237 44.777 L 19.237 41.205 L 17.13 41.205 L 17.13 40.609 L 21.94 40.609 L 21.94 41.205 L 19.833 41.205 Z" transform="matrix(5.108961, 0, 0, 4.870968, -16.702606, -131.312576)" style="fill: rgb(255, 248, 248); line-height: 9.19735px;"/>
  <path d="M 27.336 42.693 Q 27.336 43.128 27.199 43.506 Q 27.062 43.884 26.809 44.17 Q 26.556 44.456 26.205 44.616 Q 25.853 44.777 25.425 44.777 L 24.038 44.777 Q 23.603 44.777 23.252 44.616 Q 22.9 44.456 22.647 44.17 Q 22.394 43.884 22.257 43.506 Q 22.12 43.128 22.12 42.693 Q 22.12 42.265 22.257 41.887 Q 22.394 41.508 22.647 41.22 Q 22.9 40.931 23.252 40.77 Q 23.603 40.609 24.038 40.609 L 25.425 40.609 Q 25.853 40.609 26.205 40.77 Q 26.556 40.931 26.809 41.22 Q 27.062 41.508 27.199 41.887 Q 27.336 42.265 27.336 42.693 Z M 26.74 42.693 Q 26.74 42.282 26.583 41.943 Q 26.425 41.604 26.13 41.404 Q 25.836 41.205 25.425 41.205 L 24.038 41.205 Q 23.627 41.205 23.332 41.404 Q 23.037 41.604 22.877 41.943 Q 22.716 42.282 22.716 42.693 Q 22.716 43.104 22.877 43.44 Q 23.037 43.777 23.332 43.979 Q 23.627 44.182 24.038 44.182 L 25.425 44.182 Q 25.836 44.182 26.13 43.979 Q 26.425 43.777 26.583 43.44 Q 26.74 43.104 26.74 42.693 Z" transform="matrix(5.108961, 0, 0, 4.870968, -16.702606, -131.312576)" style="fill: rgb(255, 248, 248); line-height: 9.19735px;"/>
  <path d="M 28.691 44.777 L 28.096 44.777 L 28.096 40.609 L 28.393 40.609 Q 28.828 40.609 29.337 40.776 Q 29.846 40.943 30.358 41.246 Q 30.87 41.55 31.325 41.97 Q 31.781 42.39 32.108 42.902 L 32.108 40.609 L 32.704 40.609 L 32.704 44.777 L 32.108 44.777 Q 32.108 44.229 31.885 43.726 Q 31.662 43.223 31.293 42.797 Q 30.924 42.372 30.474 42.041 Q 30.025 41.711 29.56 41.5 Q 29.096 41.288 28.691 41.229 Z" transform="matrix(5.108961, 0, 0, 4.870968, -16.702606, -131.312576)" style="fill: rgb(255, 248, 248); line-height: 9.19735px;"/>
  <path d="M 35.693 40.996 Q 35.806 40.996 35.899 41.056 Q 35.991 41.116 36.009 41.264 Q 36.08 41.735 36.101 42.202 Q 36.122 42.669 36.122 43.259 Q 36.122 43.509 36.08 44.17 Q 36.342 44.194 36.485 44.194 Q 36.586 44.194 36.943 44.164 Q 37.152 44.134 37.307 44.134 Q 37.45 44.134 37.569 44.161 Q 37.688 44.188 37.813 44.247 Q 37.938 44.319 37.938 44.467 Q 37.938 44.586 37.863 44.682 Q 37.789 44.777 37.688 44.777 Q 37.616 44.777 37.461 44.753 Q 37.182 44.712 36.926 44.712 Q 36.842 44.712 36.738 44.72 Q 36.634 44.729 36.586 44.729 Q 36.443 44.747 36.3 44.747 Q 36.009 44.747 35.777 44.717 Q 35.658 44.706 35.538 44.625 Q 35.419 44.545 35.419 44.39 Q 35.419 44.301 35.443 43.932 Q 35.485 43.318 35.485 42.997 Q 35.485 42.747 35.461 42.473 Q 35.437 42.199 35.431 42.128 Q 35.378 41.622 35.378 41.294 Q 35.378 41.139 35.452 41.068 Q 35.527 40.996 35.693 40.996 Z" transform="matrix(5.108961, 0, 0, 4.870968, -16.702606, -131.312576)" style="fill: rgb(255, 248, 248); line-height: 9.52583px;"/>
  <path d="M 38.583 40.955 Q 38.792 40.973 38.946 41.065 Q 39.101 41.157 39.101 41.342 Q 39.101 41.479 38.973 41.559 Q 38.845 41.639 38.667 41.639 Q 38.494 41.639 38.428 41.55 Q 38.363 41.461 38.363 41.366 Q 38.363 41.187 38.402 41.068 Q 38.44 40.949 38.583 40.955 Z M 39.06 43.592 L 39.06 43.765 Q 39.06 43.997 39.074 44.202 Q 39.089 44.408 39.113 44.616 Q 39.107 44.676 39.024 44.738 Q 38.94 44.801 38.875 44.801 Q 38.762 44.801 38.646 44.756 Q 38.53 44.712 38.506 44.646 Q 38.47 44.456 38.47 44.307 Q 38.47 43.818 38.44 43.211 Q 38.417 42.675 38.417 42.461 Q 38.417 42.354 38.524 42.276 Q 38.631 42.199 38.75 42.199 Q 38.923 42.199 38.991 42.276 Q 39.06 42.354 39.06 42.521 Z" transform="matrix(5.108961, 0, 0, 4.870968, -16.702606, -131.312576)" style="fill: rgb(255, 248, 248); line-height: 9.52583px;"/>
  <path d="M 42.147 42.866 Q 42.195 42.949 42.225 43.107 Q 42.254 43.265 42.254 43.39 Q 42.254 43.551 42.219 43.747 Q 42.183 43.943 42.153 44.051 Q 41.742 44.801 40.939 44.801 Q 40.641 44.801 40.331 44.604 Q 40.022 44.408 39.903 44.152 Q 39.742 43.646 39.742 43.503 Q 39.742 43.265 39.846 42.997 Q 39.95 42.729 40.111 42.532 Q 40.218 42.396 40.48 42.297 Q 40.742 42.199 40.957 42.199 Q 41.373 42.199 41.662 42.357 Q 41.951 42.515 42.147 42.866 Z M 41.629 43.824 Q 41.659 43.765 41.659 43.426 Q 41.659 43.253 41.597 43.086 Q 41.534 42.919 41.415 42.8 Q 41.403 42.788 41.35 42.762 Q 41.296 42.735 41.204 42.708 Q 41.111 42.681 40.992 42.681 Q 40.659 42.681 40.504 42.949 Q 40.349 43.217 40.349 43.557 Q 40.349 43.61 40.385 43.777 Q 40.421 43.943 40.439 43.991 Q 40.486 44.074 40.632 44.185 Q 40.778 44.295 40.951 44.295 Q 41.219 44.295 41.376 44.167 Q 41.534 44.039 41.629 43.824 Z" transform="matrix(5.108961, 0, 0, 4.870968, -16.702606, -131.312576)" style="fill: rgb(255, 248, 248); line-height: 9.52583px;"/>
  <path d="M 45.542 44.319 Q 45.571 44.33 45.637 44.348 Q 45.702 44.366 45.732 44.384 Q 45.762 44.402 45.762 44.438 Q 45.768 44.581 45.658 44.673 Q 45.547 44.765 45.399 44.765 Q 45.166 44.765 45.035 44.64 Q 44.904 44.515 44.845 44.259 Q 44.821 44.158 44.821 43.979 Q 44.821 43.878 44.833 43.652 Q 44.845 43.414 44.845 43.271 Q 44.845 43.062 44.729 42.905 Q 44.613 42.747 44.404 42.747 Q 44.279 42.747 44.142 42.821 Q 44.005 42.896 43.952 43.003 Q 43.863 43.175 43.827 43.378 Q 43.761 43.735 43.761 44.122 Q 43.761 44.307 43.767 44.408 Q 43.767 44.432 43.77 44.5 Q 43.773 44.569 43.758 44.625 Q 43.744 44.682 43.708 44.729 Q 43.678 44.759 43.616 44.78 Q 43.553 44.801 43.499 44.801 Q 43.416 44.801 43.291 44.729 Q 43.166 44.658 43.148 44.569 L 43.142 44.467 Q 43.142 44.414 43.154 44.342 Q 43.226 43.926 43.226 43.616 Q 43.226 43.479 43.22 43.402 L 43.214 43.122 Q 43.214 42.979 43.142 42.845 Q 43.071 42.711 42.975 42.711 Q 42.946 42.711 42.892 42.732 Q 42.839 42.753 42.803 42.753 Q 42.743 42.753 42.675 42.693 Q 42.606 42.634 42.606 42.568 Q 42.606 42.443 42.69 42.366 Q 42.779 42.294 42.865 42.253 Q 42.952 42.211 43.065 42.211 Q 43.16 42.211 43.22 42.229 Q 43.279 42.247 43.38 42.306 Q 43.434 42.336 43.505 42.437 Q 43.577 42.538 43.624 42.723 Q 43.779 42.437 44.008 42.321 Q 44.238 42.205 44.595 42.205 Q 44.732 42.205 44.89 42.294 Q 45.047 42.384 45.16 42.503 Q 45.268 42.634 45.339 42.827 Q 45.411 43.021 45.411 43.175 Q 45.411 43.265 45.399 43.467 Q 45.381 43.628 45.381 43.807 Q 45.381 44.223 45.542 44.319 Z" transform="matrix(5.108961, 0, 0, 4.870968, -16.702606, -131.312576)" style="fill: rgb(255, 248, 248); line-height: 9.52583px;"/>
  <path d="M 46.139 43.515 Q 46.139 43.289 46.223 43.059 Q 46.306 42.83 46.443 42.64 Q 46.58 42.449 46.877 42.327 Q 47.175 42.205 47.407 42.205 Q 47.645 42.205 47.893 42.271 Q 48.14 42.336 48.235 42.473 Q 48.455 42.783 48.455 43.08 Q 48.455 43.241 48.387 43.354 Q 48.318 43.467 48.193 43.598 Q 48.092 43.705 47.875 43.741 Q 47.657 43.777 47.443 43.777 Q 47.306 43.777 47.11 43.75 Q 46.913 43.723 46.729 43.682 Q 46.74 43.801 46.788 43.914 Q 46.836 44.027 46.901 44.086 Q 47.02 44.199 47.148 44.229 Q 47.276 44.259 47.479 44.259 Q 47.693 44.259 47.878 44.188 Q 48.026 44.134 48.122 44.134 Q 48.235 44.134 48.294 44.202 Q 48.354 44.271 48.354 44.378 Q 48.354 44.527 48.181 44.622 Q 48.009 44.717 47.785 44.762 Q 47.562 44.807 47.425 44.807 Q 47.145 44.807 46.883 44.706 Q 46.621 44.604 46.449 44.42 Q 46.306 44.253 46.223 44.018 Q 46.139 43.783 46.139 43.515 Z M 47.437 42.711 Q 47.306 42.711 47.175 42.762 Q 47.044 42.812 46.961 42.902 Q 46.854 43.015 46.815 43.083 Q 46.776 43.152 46.764 43.271 Q 46.913 43.318 47.383 43.318 Q 47.639 43.318 47.779 43.241 Q 47.919 43.164 47.919 43.039 Q 47.919 42.914 47.765 42.812 Q 47.61 42.711 47.437 42.711 Z" transform="matrix(5.108961, 0, 0, 4.870968, -16.702606, -131.312576)" style="fill: rgb(255, 248, 248); line-height: 9.52583px;"/>
  <path d="M 49.722 43.854 Q 49.722 44.08 49.791 44.202 Q 49.859 44.325 49.966 44.325 Q 50.026 44.325 50.079 44.316 Q 50.133 44.307 50.186 44.307 Q 50.246 44.307 50.291 44.366 Q 50.335 44.426 50.335 44.497 Q 50.335 44.64 50.201 44.72 Q 50.067 44.801 49.841 44.801 Q 49.68 44.801 49.517 44.703 Q 49.353 44.604 49.246 44.393 Q 49.139 44.182 49.139 43.866 Q 49.139 43.187 49.162 42.717 Q 49.192 42.157 49.192 41.306 Q 49.192 41.038 49.222 40.931 Q 49.258 40.848 49.338 40.803 Q 49.418 40.758 49.508 40.758 Q 49.597 40.758 49.666 40.788 Q 49.734 40.818 49.758 40.883 Q 49.782 40.955 49.791 41.023 Q 49.8 41.092 49.8 41.217 Q 49.8 41.461 49.782 41.687 Q 49.77 41.961 49.77 42.086 Q 49.722 43.134 49.722 43.854 Z" transform="matrix(5.108961, 0, 0, 4.870968, -16.702606, -131.312576)" style="fill: rgb(255, 248, 248); line-height: 9.52583px;"/>
  <path d="M 51.847 44.323 Q 51.847 44.438 51.805 44.539 Q 51.763 44.641 51.687 44.715 Q 51.611 44.789 51.511 44.833 Q 51.412 44.877 51.297 44.877 Q 51.181 44.877 51.082 44.833 Q 50.982 44.789 50.906 44.715 Q 50.83 44.641 50.788 44.539 Q 50.746 44.438 50.746 44.323 Q 50.746 44.211 50.788 44.109 Q 50.83 44.008 50.906 43.934 Q 50.982 43.86 51.082 43.816 Q 51.181 43.772 51.297 43.772 Q 51.412 43.772 51.511 43.816 Q 51.611 43.86 51.687 43.934 Q 51.763 44.008 51.805 44.109 Q 51.847 44.211 51.847 44.323 Z" transform="matrix(5.108961, 0, 0, 4.870968, -16.702606, -131.312576)" style="fill: rgb(241, 112, 7);"/>
</svg>